<svg id="Capa_1" data-name="Capa 1" xmlns="http://www.w3.org/2000/svg" xmlns:xlink="http://www.w3.org/1999/xlink" viewBox="0 0 280.68 225.9"><defs><style>.cls-1{fill:url(#Degradado_sin_nombre_13);}</style><linearGradient id="Degradado_sin_nombre_13" x1="104.58" y1="176.38" x2="247.43" y2="-4.66" gradientUnits="userSpaceOnUse"><stop offset="0" stop-color="#2f002e"/><stop offset="1" stop-color="#39aa9e"/></linearGradient></defs><title>Mesa de trabajo 8fondo master data</title><path class="cls-1" d="M225.1,0H209.9a119.52,119.52,0,0,0-68.84,21.74A119.5,119.5,0,0,0,72.21,0H55.58C24.93,0,0,25.29,0,56.38V169.09l.07,5.17H.23c2.59,28.91,26.46,51.22,55.35,51.22h1.17c3.23.28,6.59.43,10,.43a129.15,129.15,0,0,0,16.06-1,119,119,0,0,0,50.58-17.05s1.07-1,1.07-1c25.57-15.91,40.82-39.18,46.61-71.18a149.46,149.46,0,0,0,1.47-20.51v-2.47H139.93l-2.24,12.4c-3.73,20.66-14.37,35.84-31.59,45.14a84.31,84.31,0,0,1-29.27,9.07c-2,.16-4,.25-6,.25H58.93a25.84,25.84,0,0,1-5.35-1l-4.79-2a10.94,10.94,0,0,1-2.86-7.41V56.38c0-5.76,4.33-10.45,9.65-10.45H72.21A75.11,75.11,0,0,1,124,67.06a79,79,0,0,1,14.88,19.41l2.18,4,2.17-4a79.71,79.71,0,0,1,7.21-11c.48-.61,1-1.21,1.73-2.14.45-.53.9-1.06,1.34-1.55l.32-.38c.47-.52.95-1,1.69-1.83,1.75-1.84,3.59-3.6,5.66-5.39.57-.49,1.14-1,2.06-1.7.54-.43,1.08-.85,2-1.54.57-.43,1.16-.86,2-1.46,1.38-1,2.81-1.89,4.25-2.76A74.19,74.19,0,0,1,209.9,45.93h15.2c5.32,0,9.64,4.69,9.64,10.45v169.1h45.94V56.38C280.68,25.29,255.74,0,225.1,0Z"/></svg>