<svg width="228" height="46" viewBox="0 0 228 46" fill="none" xmlns="http://www.w3.org/2000/svg">
<path d="M101.541 18.0301L106.108 29.4286L110.675 18.0301H113.064V32H111.222V26.5598L111.395 20.6878L106.808 32H105.398L100.821 20.7166L101.004 26.5598V32H99.1615V18.0301H101.541ZM124.204 28.354H118.351L117.036 32H115.137L120.471 18.0301H122.083L127.428 32H125.537L124.204 28.354ZM118.907 26.838H123.657L121.277 20.304L118.907 26.838ZM133.424 25.773C131.844 25.3189 130.693 24.7624 129.97 24.1035C129.254 23.4383 128.896 22.6196 128.896 21.6473C128.896 20.5471 129.334 19.6388 130.21 18.9224C131.093 18.1996 132.238 17.8382 133.645 17.8382C134.604 17.8382 135.458 18.0237 136.207 18.3947C136.962 18.7657 137.544 19.2774 137.953 19.9298C138.369 20.5823 138.577 21.2955 138.577 22.0695H136.725C136.725 21.2251 136.456 20.5631 135.919 20.0833C135.382 19.5972 134.624 19.3542 133.645 19.3542C132.737 19.3542 132.027 19.5556 131.515 19.9586C131.01 20.3552 130.757 20.9085 130.757 21.6185C130.757 22.1878 130.997 22.6707 131.477 23.0673C131.963 23.4575 132.785 23.8157 133.942 24.1419C135.107 24.4681 136.015 24.8295 136.667 25.2261C137.326 25.6163 137.812 26.0737 138.126 26.5982C138.446 27.1227 138.605 27.7399 138.605 28.45C138.605 29.5821 138.164 30.4904 137.281 31.1749C136.399 31.8529 135.218 32.1919 133.741 32.1919C132.781 32.1919 131.886 32.0096 131.054 31.645C130.223 31.274 129.58 30.7687 129.126 30.129C128.678 29.4894 128.454 28.7634 128.454 27.951H130.306C130.306 28.7954 130.616 29.4638 131.237 29.9563C131.864 30.4425 132.698 30.6855 133.741 30.6855C134.713 30.6855 135.458 30.4872 135.976 30.0906C136.495 29.6941 136.754 29.1536 136.754 28.4691C136.754 27.7847 136.514 27.257 136.034 26.886C135.554 26.5086 134.684 26.1376 133.424 25.773ZM150.628 19.546H146.137V32H144.305V19.546H139.824V18.0301H150.628V19.546ZM160.597 25.5427H154.542V30.4936H161.575V32H152.7V18.0301H161.479V19.546H154.542V24.0364H160.597V25.5427ZM168.992 26.3487H165.711V32H163.859V18.0301H168.483C170.057 18.0301 171.266 18.3883 172.11 19.1047C172.961 19.8211 173.386 20.8637 173.386 22.2326C173.386 23.1025 173.15 23.8605 172.676 24.5065C172.209 25.1526 171.557 25.6355 170.719 25.9553L174 31.8849V32H172.024L168.992 26.3487ZM165.711 24.8423H168.541C169.456 24.8423 170.182 24.6057 170.719 24.1323C171.263 23.659 171.535 23.0257 171.535 22.2326C171.535 21.369 171.275 20.707 170.757 20.2465C170.246 19.7859 169.504 19.5524 168.531 19.546H165.711V24.8423ZM180.851 32V18.0301H184.794C186.01 18.0301 187.084 18.2987 188.018 18.836C188.952 19.3733 189.672 20.1377 190.177 21.1292C190.689 22.1206 190.948 23.2592 190.954 24.5449V25.4372C190.954 26.7549 190.698 27.9094 190.187 28.9009C189.681 29.8924 188.955 30.6535 188.009 31.1844C187.068 31.7154 185.971 31.9872 184.718 32H180.851ZM182.693 19.546V30.4936H184.631C186.051 30.4936 187.155 30.0523 187.942 29.1696C188.735 28.2868 189.131 27.0299 189.131 25.3988V24.5833C189.131 22.9969 188.757 21.7656 188.009 20.8893C187.267 20.0066 186.211 19.5588 184.842 19.546H182.693ZM201.249 28.354H195.397L194.082 32H192.182L197.517 18.0301H199.129L204.473 32H202.583L201.249 28.354ZM195.953 26.838H200.702L198.323 20.304L195.953 26.838ZM214.759 19.546H210.268V32H208.436V19.546H203.955V18.0301H214.759V19.546ZM223.778 28.354H217.925L216.611 32H214.711L220.045 18.0301H221.657L227.002 32H225.111L223.778 28.354ZM218.482 26.838H223.231L220.851 20.304L218.482 26.838Z" fill="black"/>
<path d="M77.29 22C78.0811 22 78.8545 22.2346 79.5123 22.6741C80.1701 23.1136 80.6828 23.7384 80.9855 24.4693C81.2883 25.2002 81.3675 26.0044 81.2131 26.7804C81.0588 27.5563 80.6778 28.269 80.1184 28.8284C79.559 29.3878 78.8463 29.7688 78.0704 29.9231C77.2944 30.0775 76.4902 29.9983 75.7593 29.6955C75.0284 29.3928 74.4036 28.8801 73.9641 28.2223C73.5246 27.5645 73.29 26.7911 73.29 26C73.29 24.9391 73.7114 23.9217 74.4616 23.1716C75.2117 22.4214 76.2291 22 77.29 22" fill="#2F002E"/>
<path d="M45.4702 3.69841e-06H42.4002C37.4253 -0.002643 32.571 1.53049 28.5002 4.39C24.4256 1.5303 19.5681 -0.00274822 14.5902 3.69841e-06H11.2302C8.23221 0.0264224 5.36691 1.24001 3.262 3.37491C1.15709 5.50981 -0.0158318 8.39197 0.000161434 11.39V34.16V35.16C0.232623 37.9705 1.50936 40.5919 3.57877 42.5077C5.64819 44.4235 8.36015 45.4946 11.1802 45.51H11.4201C12.0701 45.57 12.7501 45.6 13.4201 45.6C14.5033 45.5935 15.5852 45.5234 16.6602 45.39C20.2836 45.0263 23.7776 43.8468 26.8802 41.94L27.0902 41.75C32.2602 38.53 35.3402 33.83 36.5102 27.37C36.7048 25.9985 36.805 24.6152 36.8102 23.23V22.73H28.2001L27.7502 25.23C27.4755 27.1437 26.755 28.966 25.6468 30.5502C24.5386 32.1343 23.0737 33.4359 21.3702 34.35C19.5245 35.3148 17.5183 35.9349 15.4501 36.18C15.0501 36.18 14.6402 36.18 14.2302 36.18H11.8402C11.4712 36.1436 11.1063 36.0733 10.7502 35.97L9.84016 35.62C9.46615 35.2101 9.25924 34.6749 9.26017 34.12V11.39C9.24536 11.1224 9.28447 10.8546 9.37519 10.6024C9.46592 10.3502 9.60641 10.1188 9.78831 9.92202C9.9702 9.7252 10.1898 9.56695 10.434 9.45666C10.6783 9.34637 10.9422 9.28629 11.2102 9.28H14.5702C18.4772 9.30035 22.2251 10.8303 25.0302 13.55C26.23 14.6909 27.2424 16.0138 28.0302 17.47L28.4702 18.29L28.9102 17.47C29.3321 16.6885 29.817 15.9427 30.3601 15.24L30.7102 14.81L30.9802 14.49L31.0501 14.42C31.1401 14.31 31.2401 14.21 31.3901 14.05C31.7507 13.6668 32.1312 13.303 32.5302 12.96L32.9501 12.62L33.3502 12.3L33.7602 12.01C34.0402 11.81 34.3201 11.63 34.6101 11.45C36.9505 10.0325 39.634 9.28204 42.3702 9.28H45.4402C45.7081 9.28629 45.972 9.34637 46.2163 9.45666C46.4605 9.56695 46.6801 9.7252 46.862 9.92202C47.0439 10.1188 47.1844 10.3502 47.2751 10.6024C47.3658 10.8546 47.405 11.1224 47.3901 11.39V45.55H56.6701V11.39C56.6862 8.39711 55.5174 5.51945 53.4189 3.3854C51.3205 1.25136 48.4629 0.0343015 45.4702 3.69841e-06V3.69841e-06Z" fill="url(#paint0_linear)"/>
<defs>
<linearGradient id="paint0_linear" x1="21.1302" y1="35.63" x2="49.9802" y2="-0.939988" gradientUnits="userSpaceOnUse">
<stop stop-color="#2F002E"/>
<stop offset="1" stop-color="#39AA9E"/>
</linearGradient>
</defs>
</svg>
